<svg xmlns="http://www.w3.org/2000/svg" width="512" height="512" viewBox="0 0 5120000 5120000" shape-rendering="geometricPrecision" text-rendering="geometricPrecision" image-rendering="optimizeQuality" fill-rule="evenodd" clip-rule="evenodd"><defs><style>.fil3{fill:#fff;fill-rule:nonzero}</style></defs><g id="Layer_x0020_1"><g id="_2484473927296"><path fill="#6cdbf7" d="M0 3130000h5120000v1990000H0z"/><path d="M0 0h5120000v3130000H0z"/><path d="M4219000 4626700c-47300 0-92300-4600-134500-13600-42500-9000-82000-22400-118900-40400-36700-18200-71100-40600-102900-67600l85800-105500c37400 32300 78700 56800 123700 72900 45000 16200 94000 24300 146800 24300 71100 0 126200-13200 165500-39500 39200-26300 58800-63700 58800-111900v-700c0-34200-8700-61400-26500-81500-18000-20100-40900-34800-69000-44500-28200-9700-64600-18700-109200-26800-1400-500-3000-700-4400-700-1600 0-3200-200-4600-700l-9900-1800c-66000-11300-119600-24300-160600-38300-41400-14400-76700-40200-106000-77800-29300-37700-43800-91200-43800-160600v-800c0-60600 13600-112500 40800-155700 27300-42900 67200-75900 119400-98400 52300-22600 115100-33900 188700-33900 35100 0 69700 4000 103700 11600 34100 7600 67600 19100 100800 34100 33000 15000 65600 34200 97600 57300l-78400 109300c-37400-27400-74600-48000-111900-61800-37200-13600-74400-20600-111800-20600-67100 0-119500 13500-156700 40200-37100 26800-55600 64900-55600 114100v600c0 33700 9500 60300 28600 79700 19200 19400 43200 33600 71800 42900 28600 9200 68300 18900 119300 28800 1900 500 3500 700 5100 900 1600 300 3200 700 5100 1200 2300 500 4600 900 7400 1400 2700 200 5000 700 7400 1100 59500 12300 109100 26800 149100 43400 39900 16700 73400 43700 100100 80800 26800 37200 40100 88000 40100 152500v1200c0 60000-14000 111200-42400 154000-28600 42700-69700 74900-123500 97400-54000 22300-118800 33400-195000 33400zm-951300-141200h493600v131100h-631600v-983200h138000v852100zm-706500 5300c40400 0 76200-9300 107100-27500s54700-44100 71600-77800c17000-33500 25400-72200 25400-116500v-288100c0-44000-8400-83000-25400-116500-16900-33700-40700-59500-71600-77800-30900-18200-66700-27400-107100-27400-40600 0-76300 9200-107300 27400-30900 18300-54700 44100-71500 77800-17100 33500-25400 72500-25400 116500v288100c0 44300 8300 83000 25400 116500 16800 33700 40600 59600 71500 77800 31000 18200 66700 27500 107300 27500zm0 135900c-68500 0-128900-15000-181400-45000-52100-30000-92500-72200-121100-127200-28600-54600-42900-118100-42900-190100v-278600c0-72200 14300-135700 42900-190400s69000-97200 121100-127100c52500-30000 112900-45100 181400-45100 68300 0 128800 15100 181200 45100 52200 29900 92800 72400 121400 127100s42900 118200 42900 190400v278600c0 72000-14300 135500-42900 190100-28600 55000-69200 97200-121400 127200-52400 30000-112900 45000-181200 45000zm-893800-135900c40400 0 76200-9300 107100-27500s54700-44100 71500-77800c17100-33500 25400-72200 25400-116500v-288100c0-44000-8300-83000-25400-116500-16800-33700-40600-59500-71500-77800-30900-18200-66700-27400-107100-27400-40600 0-76400 9200-107300 27400-31000 18300-54700 44100-71500 77800-17100 33500-25400 72500-25400 116500v288100c0 44300 8300 83000 25400 116500 16800 33700 40500 59600 71500 77800 30900 18200 66700 27500 107300 27500zm0 135900c-68500 0-129000-15000-181400-45000-52200-30000-92500-72200-121200-127200-28600-54600-42900-118100-42900-190100v-278600c0-72200 14300-135700 42900-190400 28700-54700 69000-97200 121200-127100 52400-30000 112900-45100 181400-45100 68300 0 128800 15100 181200 45100 52100 29900 92700 72400 121300 127100 28700 54700 43000 118200 43000 190400v278600c0 72000-14300 135500-43000 190100-28600 55000-69200 97200-121300 127200-52400 30000-112900 45000-181200 45000zM540000 3633400h693700v131300H955900v851900H818100v-851900H540000v-131300z" fill-rule="nonzero"/><path class="fil3" d="M3882500 2513000c-128600 0-241700-28600-339200-85500-97600-57000-173300-138400-226800-242900s-80200-226300-80200-364100v-509700c0-137800 26700-259600 80200-364100 53500-104600 129100-185800 226800-243300 97600-57600 210600-86400 339200-86400 106400 0 204600 23300 293900 68500 89200 45200 164000 110100 224100 193600 59900 83200 100800 180100 122100 290000h-267300c-16100-58000-43400-110000-81100-155300-37900-45500-82400-81000-133400-105500-50800-24400-103800-37100-158300-37100-75900 0-142300 18500-199300 55000-57000 36400-101800 88200-133000 153900-31300 66100-47100 143300-47100 230700v509700c0 86500 16000 163700 47100 229800 31400 66600 75900 117700 133000 153900s123400 54600 199300 54600c55400 0 108300-11400 159200-34500 50400-22900 94600-57400 132500-102500 37700-44800 65000-98500 81100-160900h267300c-21300 109900-62700 206700-122900 290000-60300 83400-135500 148200-224600 193600-89400 45500-187100 68500-292600 68500zM2335800 2256100c76300 0 144000-17500 202300-51900 58300-34300 103200-83500 135200-146900 31900-63300 47900-136500 47900-220200v-544200c0-83300-16000-156900-47900-220200-32000-63400-76900-112600-135200-147000-58300-34300-126000-51800-202300-51800-76800 0-144500 17500-202800 51800-58300 34400-103100 83600-135200 147000-31900 63300-47900 137100-47900 220200v544200c0 83500 16000 156900 47900 220200 32100 63400 76900 112600 135200 146900 58300 34400 126000 51900 202800 51900zm0 256900c-129500 0-243900-28400-342800-85100-98500-56500-174800-136600-228900-240200-53900-103300-81100-223300-81100-359300v-526300c0-136500 27000-256400 81100-359800 54100-103300 130400-183800 228900-240300 98900-56700 213300-85000 342800-85000 129000 0 243400 28300 342300 85000 98500 56500 175300 137000 229300 240300 54100 103400 81200 223400 81200 359800v526300c0 135800-27300 256000-81200 359300-54000 103600-130800 183700-229300 240200-98900 56700-213300 85100-342300 85100zM597400 636200h260700v1609900h754500v247700H597400V636200z"/></g></g></svg>