<svg xmlns="http://www.w3.org/2000/svg" width="512" height="512" viewBox="0 0 5164200 5164200" shape-rendering="geometricPrecision" text-rendering="geometricPrecision" image-rendering="optimizeQuality" fill-rule="evenodd" clip-rule="evenodd"><path d="M153000 2211300L2211200 153000c204000-203900 537800-203900 741800 0l1447100 1447100h-915800c-39600-128400-109200-242600-208800-342700-172700-173800-406300-260200-701800-260200-277800 0-503600 78600-678300 235600-174800 157100-262100 346500-262100 569400 0 217900 73600 394600 219800 530100 134500 123700 339600 245000 615000 363800 25700 11100 52200 22000 79200 32800 264100 126600 436800 232600 517400 317000 80400 83500 120700 195400 120700 333800 0 131500-50100 246400-152100 345500-102200 98200-249400 147300-442800 147300-190400 0-340600-62900-451500-188500s-166900-272900-166900-442700H441300l-288300-288300c-204000-204000-204000-537800 0-741700zm4569800-288400l288400 288400c204000 203900 204000 537700 0 741700L2953000 5011200c-204000 204000-537800 204000-741800 0L764100 3564100h915800c39600 128400 109200 242600 208800 342800 172800 173700 406400 260100 701800 260100 277800 0 503600-78500 678300-235600 174800-157100 262100-346500 262100-569400 0-217900-73600-394600-219900-530100-134400-123700-339400-245000-614900-363900-25800-11000-52200-21800-79200-32600-264100-126700-436800-232700-517400-317200-80500-83400-120700-195300-120700-333700 0-131500 50000-246300 152100-345600 102200-98100 249400-147200 442800-147200 190400 0 340600 62900 451500 188600 110900 125600 166900 272800 166900 442600h1530700z" fill="#cc6f3c"/></svg>