<svg xmlns="http://www.w3.org/2000/svg" width="512" height="512" viewBox="0 0 1153900 1153900" shape-rendering="geometricPrecision" text-rendering="geometricPrecision" image-rendering="optimizeQuality" fill-rule="evenodd" clip-rule="evenodd"><path d="M902900 876600l-243100 243100c-45600 45600-120200 45600-165700 0L327800 953400l575100-76800z" fill="#58c9d1"/><path d="M1149300 544400c11400 39700 1500 84300-29600 115400L967100 812400l-693800 86600-53800-53800 929800-300800z" fill="#3c97cc"/><path d="M1004900 379300l93900 93900-932300 318900L34200 659800c-40400-40400-45000-103500-13900-149000l984600-131500z" fill="#1374c4"/><path d="M133000 395200L494100 34200c45500-45600 120100-45600 165700 0l273700 273700-800500 87300z" fill="#4c6094"/></svg>